<svg xmlns="http://www.w3.org/2000/svg" width="101.5" height="16" viewBox="0 0 101.5 16">
    <g data-name="Google review">
        <path d="M33.846.562a1.091 1.091 0 0 0-1.909 0L29.806 4.7l-4.759.662a1.044 1.044 0 0 0-.852.678.965.965 0 0 0 .262 1.022l3.453 3.218-.815 4.553a.978.978 0 0 0 .428.978 1.122 1.122 0 0 0 1.12.072l4.252-2.14 4.252 2.14a1.115 1.115 0 0 0 1.12-.072.98.98 0 0 0 .428-.978l-.819-4.553 3.453-3.222a.959.959 0 0 0 .262-1.022 1.048 1.048 0 0 0-.852-.678L35.976 4.7z" transform="translate(-24.144)" style="fill:#91ff59"/>
        <path data-name="star-solid" d="M33.846.562a1.091 1.091 0 0 0-1.909 0L29.806 4.7l-4.759.662a1.044 1.044 0 0 0-.852.678.965.965 0 0 0 .262 1.022l3.453 3.218-.815 4.553a.978.978 0 0 0 .428.978 1.122 1.122 0 0 0 1.12.072l4.252-2.14 4.252 2.14a1.115 1.115 0 0 0 1.12-.072.98.98 0 0 0 .428-.978l-.819-4.553 3.453-3.222a.959.959 0 0 0 .262-1.022 1.048 1.048 0 0 0-.852-.678L35.976 4.7z" transform="translate(-3.144)" style="fill:#91ff59"/>
        <path data-name="star-solid" d="M33.846.562a1.091 1.091 0 0 0-1.909 0L29.806 4.7l-4.759.662a1.044 1.044 0 0 0-.852.678.965.965 0 0 0 .262 1.022l3.453 3.218-.815 4.553a.978.978 0 0 0 .428.978 1.122 1.122 0 0 0 1.12.072l4.252-2.14 4.252 2.14a1.115 1.115 0 0 0 1.12-.072.98.98 0 0 0 .428-.978l-.819-4.553 3.453-3.222a.959.959 0 0 0 .262-1.022 1.048 1.048 0 0 0-.852-.678L35.976 4.7z" transform="translate(17.856)" style="fill:#91ff59"/>
        <path data-name="star-solid" d="M33.846.562a1.091 1.091 0 0 0-1.909 0L29.806 4.7l-4.759.662a1.044 1.044 0 0 0-.852.678.965.965 0 0 0 .262 1.022l3.453 3.218-.815 4.553a.978.978 0 0 0 .428.978 1.122 1.122 0 0 0 1.12.072l4.252-2.14 4.252 2.14a1.115 1.115 0 0 0 1.12-.072.98.98 0 0 0 .428-.978l-.819-4.553 3.453-3.222a.959.959 0 0 0 .262-1.022 1.048 1.048 0 0 0-.852-.678L35.976 4.7z" transform="translate(38.856)" style="fill:#91ff59"/>
        <path data-name="star-solid" d="M33.846.562a1.091 1.091 0 0 0-1.909 0L29.806 4.7l-4.759.662a1.044 1.044 0 0 0-.852.678.965.965 0 0 0 .262 1.022l3.453 3.218-.815 4.553a.978.978 0 0 0 .428.978 1.122 1.122 0 0 0 1.12.072l4.252-2.14 4.252 2.14a1.115 1.115 0 0 0 1.12-.072.98.98 0 0 0 .428-.978l-.819-4.553 3.453-3.222a.959.959 0 0 0 .262-1.022 1.048 1.048 0 0 0-.852-.678L35.976 4.7z" transform="translate(59.856)" style="fill:#91ff59"/>
    </g>
</svg>
