<svg xmlns="http://www.w3.org/2000/svg" width="96.75" height="86" viewBox="0 0 96.75 86">
    <path d="M16.125 0a5.369 5.369 0 0 0-5.375 5.375v32.25h16.125V32.25a10.76 10.76 0 0 1 10.75-10.75H75.25V5.375A5.369 5.369 0 0 0 69.875 0zm21.5 26.875a5.369 5.369 0 0 0-5.375 5.375v5.375h16.125a10.76 10.76 0 0 1 10.75 10.75v21.5h32.25A5.369 5.369 0 0 0 96.75 64.5V32.25a5.369 5.369 0 0 0-5.375-5.375zm40.313 10.75h5.375A2.7 2.7 0 0 1 86 40.313v5.375a2.7 2.7 0 0 1-2.687 2.688h-5.375a2.7 2.7 0 0 1-2.687-2.687v-5.376a2.7 2.7 0 0 1 2.687-2.688zM5.375 43A5.369 5.369 0 0 0 0 48.375v2.184l26.052 19.3a1.395 1.395 0 0 0 1.646 0l26.052-19.3v-2.184A5.369 5.369 0 0 0 48.375 43zM53.75 57.244 30.906 74.175a6.787 6.787 0 0 1-8.062 0L0 57.244v23.381A5.369 5.369 0 0 0 5.375 86h43a5.369 5.369 0 0 0 5.375-5.375z"/>
</svg>
