<svg xmlns="http://www.w3.org/2000/svg" width="97.73" height="86.872" viewBox="0 0 97.73 86.872">
    <path d="M.661 3.885A6.759 6.759 0 0 1 6.786 0h73.3a6.794 6.794 0 0 1 5.243 11.1L67.257 33.188a29.867 29.867 0 0 0-20.853 42.231 5.613 5.613 0 0 1-.8-.492l-10.856-8.144a5.392 5.392 0 0 1-2.172-4.344V49.018L1.526 11.08a6.769 6.769 0 0 1-.865-7.195zM97.73 62.439a24.433 24.433 0 1 1-24.435-24.433A24.439 24.439 0 0 1 97.73 62.439zm-28.369-5.531a1.933 1.933 0 0 1 .713-.577 7.06 7.06 0 0 1 3.173-.679 20.164 20.164 0 0 1 4.479.7 2.718 2.718 0 1 0 1.306-5.277 35.346 35.346 0 0 0-3.037-.628v-1.582a2.715 2.715 0 0 0-5.429 0v1.612a10.743 10.743 0 0 0-3.054 1.069 6.527 6.527 0 0 0-3.7 6.312 6.356 6.356 0 0 0 3.665 5.209 24.9 24.9 0 0 0 4.853 1.748l.305.085a18.034 18.034 0 0 1 3.936 1.408c.764.458.8.713.8.95a1.252 1.252 0 0 1-.17.764 1.591 1.591 0 0 1-.679.56 6.7 6.7 0 0 1-3.139.611 18.393 18.393 0 0 1-5.073-1.154l-.984-.305a2.71 2.71 0 0 0-1.612 5.175c.271.085.56.17.848.271a37.54 37.54 0 0 0 4.021 1.12v1.934a2.715 2.715 0 0 0 5.429 0v-1.8a10.5 10.5 0 0 0 3.1-1.052 6.656 6.656 0 0 0 3.683-6.26 6.472 6.472 0 0 0-3.478-5.48 21.753 21.753 0 0 0-5.175-1.951h-.034a21.517 21.517 0 0 1-4.051-1.391c-.814-.441-.814-.679-.814-.764v-.017a.9.9 0 0 1 .136-.611z"/>
</svg>
