<svg xmlns="http://www.w3.org/2000/svg" width="85.983" height="86" viewBox="0 0 85.983 86">
    <path d="M69.865 34.932a34.846 34.846 0 0 1-6.718 20.607l21.262 21.279a5.38 5.38 0 0 1-7.609 7.608L55.539 63.147a34.937 34.937 0 1 1 14.326-28.215zM38.291 17.466a3.359 3.359 0 1 0-6.718 0v2.351a12.957 12.957 0 0 0-3.728 1.428 8.384 8.384 0 0 0-4.333 7.373 7.826 7.826 0 0 0 4.148 6.835 26.274 26.274 0 0 0 5.979 2.347l.286.084a20.762 20.762 0 0 1 4.7 1.8c.857.537.974.907.991 1.377a1.816 1.816 0 0 1-.991 1.763 6.675 6.675 0 0 1-3.594.789 20.905 20.905 0 0 1-5.895-1.428q-.579-.2-1.209-.4A3.356 3.356 0 0 0 25.8 48.15c.319.1.672.218 1.024.353a38.995 38.995 0 0 0 4.736 1.411V52.4a3.359 3.359 0 1 0 6.718 0v-2.319a12.045 12.045 0 0 0 3.9-1.511 8.522 8.522 0 0 0 4.165-7.557 8.2 8.2 0 0 0-4.143-6.988 26.367 26.367 0 0 0-6.231-2.519l-.118-.034a23.451 23.451 0 0 1-4.751-1.763c-.873-.521-.89-.823-.89-1.125a1.677 1.677 0 0 1 1.041-1.562 7.311 7.311 0 0 1 3.611-.84 21.335 21.335 0 0 1 5.24.873 3.363 3.363 0 1 0 1.73-6.5 44.19 44.19 0 0 0-3.544-.789z"/>
</svg>
