<svg xmlns="http://www.w3.org/2000/svg" width="98.286" height="86" viewBox="0 0 98.286 86">
    <path d="M18.429 12.286A12.3 12.3 0 0 1 30.714 0H86a12.3 12.3 0 0 1 12.286 12.286v61.429A12.3 12.3 0 0 1 86 86H15.357A15.353 15.353 0 0 1 0 70.643V18.429a6.143 6.143 0 1 1 12.286 0v52.214a3.071 3.071 0 0 0 6.143 0zm12.286 4.607V32.25a4.6 4.6 0 0 0 4.607 4.607h46.071A4.6 4.6 0 0 0 86 32.25V16.893a4.6 4.6 0 0 0-4.607-4.607H35.321a4.6 4.6 0 0 0-4.607 4.607zm0 35.321a3.08 3.08 0 0 0 3.071 3.071h18.428a3.071 3.071 0 1 0 0-6.143H33.786a3.08 3.08 0 0 0-3.072 3.072zm30.714 0a3.08 3.08 0 0 0 3.071 3.072h18.429a3.071 3.071 0 1 0 0-6.143H64.5a3.08 3.08 0 0 0-3.071 3.071zM30.714 70.643a3.08 3.08 0 0 0 3.071 3.071h18.429a3.071 3.071 0 1 0 0-6.143H33.786a3.08 3.08 0 0 0-3.072 3.072zm30.714 0a3.08 3.08 0 0 0 3.071 3.071h18.43a3.071 3.071 0 0 0 0-6.143H64.5a3.08 3.08 0 0 0-3.071 3.072z"/>
</svg>
