<svg xmlns="http://www.w3.org/2000/svg" width="110.571" height="86" viewBox="0 0 110.571 86">
    <path d="M12.286 0A12.3 12.3 0 0 0 0 12.286v61.429A12.3 12.3 0 0 0 12.286 86h86a12.3 12.3 0 0 0 12.286-12.286V12.286A12.3 12.3 0 0 0 98.286 0zm31.77 27.125 13.821 27.642a4.606 4.606 0 0 1-8.235 4.127l-1.037-2.073H31.252l-1.037 2.054a4.606 4.606 0 1 1-8.235-4.127L35.8 27.105a4.612 4.612 0 0 1 8.254 0zm-4.127 12.362-4.07 8.12h8.12zM75.25 43a4.607 4.607 0 1 0 4.607 4.607A4.6 4.6 0 0 0 75.25 43zm4.607-8.427v-5.394a4.607 4.607 0 0 1 9.214 0v27.642a4.6 4.6 0 0 1-4.607 4.607 4.665 4.665 0 0 1-3.264-1.343 13.823 13.823 0 1 1-5.951-26.3 13.584 13.584 0 0 1 4.608.788z"/>
</svg>
